<?xml version="1.0" standalone="no"?>
<!DOCTYPE svg PUBLIC "-//W3C//DTD SVG 20010904//EN"
 "http://www.w3.org/TR/2001/REC-SVG-20010904/DTD/svg10.dtd">
<svg version="1.0" xmlns="http://www.w3.org/2000/svg"
 width="499.000000pt" height="499.000000pt" viewBox="0 0 499.000000 499.000000"
 preserveAspectRatio="xMidYMid meet">
<metadata>
Created by potrace 1.11, written by Peter Selinger 2001-2013
</metadata>
<g transform="translate(0.000000,499.000000) scale(0.100000,-0.100000)"
fill="#000000" stroke="none">
<path d="M1955 4676 c-68 -22 -100 -43 -153 -100 -85 -94 -87 -104 -87 -511
l0 -350 33 -67 c39 -80 102 -139 178 -168 43 -16 79 -20 164 -20 l110 0 0 -55
0 -55 303 2 302 3 3 53 3 52 112 0 c102 0 117 2 172 29 78 36 145 109 174 186
21 57 22 69 19 414 l-3 356 -28 57 c-31 64 -94 124 -165 160 l-47 23 -525 2
c-404 2 -534 -1 -565 -11z m1080 -291 c21 -8 39 -25 45 -40 6 -15 10 -137 10
-281 l0 -256 -29 -29 -29 -29 -532 0 -531 0 -24 25 -25 24 0 274 c0 271 0 274
23 294 12 11 29 23 37 26 8 3 241 6 518 6 418 1 508 -1 537 -14z"/>
<path d="M2158 4294 c-65 -35 -73 -121 -17 -168 84 -71 205 26 155 123 -17 32
-62 61 -93 61 -10 -1 -30 -7 -45 -16z"/>
<path d="M2764 4301 c-63 -27 -84 -116 -40 -164 64 -70 176 -30 176 62 0 71
-75 127 -136 102z"/>
<path d="M2290 4015 c-16 -19 -6 -45 32 -84 100 -103 251 -105 355 -6 36 34
44 49 41 71 -5 45 -33 42 -81 -9 -40 -43 -91 -67 -142 -67 -36 1 -102 37 -131
74 -31 38 -54 45 -74 21z"/>
<path d="M1769 3295 c-14 -8 -31 -27 -38 -42 -8 -21 -11 -195 -9 -658 l3 -630
28 -57 c35 -72 110 -140 184 -168 54 -20 69 -21 582 -18 l526 3 45 24 c70 37
98 61 135 115 64 95 65 104 65 766 0 577 -1 596 -20 628 -11 18 -32 37 -46 42
-15 6 -294 10 -727 10 -587 -1 -706 -3 -728 -15z m1231 -285 c19 -19 20 -33
20 -310 0 -277 -1 -291 -20 -310 -19 -19 -33 -20 -493 -20 -411 0 -475 2 -495
16 -22 15 -22 16 -22 314 0 298 0 299 22 314 20 14 84 16 495 16 460 0 474 -1
493 -20z"/>
<path d="M1605 3157 c-78 -41 -199 -163 -251 -252 -40 -69 -104 -213 -104
-234 0 -7 37 -11 105 -11 l104 0 47 90 c31 60 66 111 105 151 l60 60 -3 114
-3 114 -60 -32z"/>
<path d="M3330 3076 l0 -114 63 -64 c44 -44 77 -90 108 -150 l44 -88 107 0
107 0 -18 53 c-70 201 -196 365 -342 442 l-69 36 0 -115z"/>
<path d="M1127 2592 c-15 -16 -17 -48 -17 -235 l0 -217 205 0 205 0 0 218 c0
199 -2 220 -18 235 -16 14 -44 17 -189 17 -152 0 -172 -2 -186 -18z"/>
<path d="M3499 2593 c-11 -12 -15 -68 -17 -235 l-3 -218 205 0 206 0 0 225 c0
212 -1 225 -19 235 -11 6 -91 10 -189 10 -145 0 -172 -2 -183 -17z"/>
<path d="M1075 2067 c-4 -12 -5 -50 -3 -82 l3 -60 240 0 240 0 0 80 0 80 -237
3 -238 2 -5 -23z"/>
<path d="M3457 2084 c-4 -4 -7 -43 -7 -86 l0 -78 240 0 241 0 -3 83 -3 82
-231 3 c-127 1 -233 -1 -237 -4z"/>
<path d="M1110 1853 c0 -33 22 -98 42 -126 l20 -28 28 26 27 26 -19 37 c-10
20 -17 47 -15 60 4 20 0 22 -39 22 -35 0 -44 -3 -44 -17z"/>
<path d="M1440 1847 c0 -12 -8 -39 -19 -59 l-18 -37 27 -26 c26 -25 27 -25 44
-6 22 24 45 87 46 124 0 25 -3 27 -40 27 -35 0 -40 -3 -40 -23z"/>
<path d="M3492 1821 c3 -27 15 -65 28 -86 l23 -37 30 30 c28 29 29 31 13 53
-9 13 -16 38 -16 56 0 32 -1 33 -41 33 l-42 0 5 -49z"/>
<path d="M3810 1837 c0 -18 -7 -43 -16 -56 -16 -22 -15 -24 13 -53 l30 -30 23
37 c13 21 25 59 28 86 l5 49 -42 0 c-40 0 -41 -1 -41 -33z"/>
<path d="M2010 1313 l0 -363 145 0 145 0 0 359 0 360 -145 3 -145 3 0 -362z"/>
<path d="M2710 1310 l0 -360 145 0 145 0 0 360 0 360 -145 0 -145 0 0 -360z"/>
<path d="M1980 897 l-25 -13 -3 -206 -2 -207 52 27 c47 24 63 27 153 27 91 0
105 -3 149 -27 27 -16 50 -28 52 -28 2 0 4 90 4 199 l0 200 -26 20 c-24 19
-40 21 -178 21 -102 0 -159 -4 -176 -13z"/>
<path d="M2680 897 l-25 -13 -3 -206 -2 -207 52 27 c47 24 63 27 153 27 90 0
105 -3 153 -28 l52 -27 0 199 0 200 -26 20 c-24 19 -40 21 -178 21 -102 0
-159 -4 -176 -13z"/>
<path d="M2054 472 c-106 -38 -177 -128 -198 -249 l-5 -33 301 0 301 0 -6 45
c-25 181 -221 299 -393 237z"/>
<path d="M2762 476 c-109 -36 -187 -131 -205 -248 l-6 -38 301 0 301 0 -6 45
c-13 94 -77 180 -167 225 -56 29 -157 36 -218 16z"/>
</g>
</svg>
